<?xml version="1.0" encoding="utf-8"?>
<!-- Generator: Adobe Illustrator 17.1.0, SVG Export Plug-In . SVG Version: 6.00 Build 0)  -->
<!DOCTYPE svg PUBLIC "-//W3C//DTD SVG 1.1//EN" "http://www.w3.org/Graphics/SVG/1.1/DTD/svg11.dtd">
<svg version="1.1" xmlns="http://www.w3.org/2000/svg" xmlns:xlink="http://www.w3.org/1999/xlink" x="0px" y="0px" width="360px"
	 height="203px" viewBox="0 0 360 203" enable-background="new 0 0 360 203" xml:space="preserve">
<g id="Layer_1">
	<g>
		<path fill="#737373" d="M180,201.5c-26.8,0-52.1-10.5-71-29.6c-18.9-19-29.2-44-29-70.5c-0.1-26.3,10.1-51.2,28.7-70
			c18.5-18.8,43-29.4,69.2-29.9c0.7,0,1.4,0,2,0c26.7,0,51.9,10.4,70.8,29.3c18.7,18.7,29.1,43.5,29.3,69.7
			c0.2,26.9-10.1,52.2-29,71.3c-18.8,18.9-43.7,29.5-70.2,29.7C180.6,201.5,180.3,201.5,180,201.5z M179.9,4.4c-0.7,0-1.3,0-2,0
			c-52.6,1-95.2,44.6-95,97c-0.2,25.7,9.9,50.1,28.2,68.5c18.6,18.7,43.4,28.9,69.7,28.7c25.7-0.2,49.9-10.4,68.1-28.8
			c18.4-18.5,28.4-43.1,28.2-69.2C276.7,47.5,233.1,4.4,179.9,4.4z"/>
		<path fill-rule="evenodd" clip-rule="evenodd" fill="#EFAA1E" d="M187,64.3c4.2-1.4,8.1-3.2,12.1-4c15-3.1,30.1,6.9,33.8,21.9
			c0.9,3.9,1.2,7.8,0.5,11.7c-0.2,1.3,0.2,1.9,1.5,2.4c8.9,3,14.5,9.1,16.2,18.3c2.9,15.8-9.5,27.8-21.9,27.9
			c-31.4,0.2-62.7,0.2-94.1,0.3c-9.3,0-16.9-3.2-22-11.3c-7.4-11.7-3.4-27.1,8.8-33.8c0.6-0.3,1.2-0.6,2-1.1
			c-3.9-10.5-3.3-20.7,2.1-30.5c3.8-7,9.5-12,16.8-15.2C156.6,44.7,176.2,47.7,187,64.3z"/>
		<g>
			<path fill="#FFFFFF" d="M163.8,118l-22.3-9.8v-3.7l22.3-9.8v5.6l-15.1,6.1l15.1,6.1V118z"/>
			<path fill="#FFFFFF" d="M170.1,120l18.1-31.2h7L177.1,120H170.1z"/>
			<path fill="#FFFFFF" d="M201.7,118v-5.6l15.1-6.1l-15.1-6.1v-5.6l22.3,9.8v3.7L201.7,118z"/>
		</g>
	</g>
</g>

<h> New Line Added from </h1>
<g id="Layer_2" display="none">
	<g display="inline">
		<path fill="#737373" d="M180,201.5c-26.8,0-52.1-10.5-71-29.6c-18.9-19-29.2-44-29-70.5c-0.1-26.3,10.1-51.2,28.7-70
			c18.5-18.8,43-29.4,69.2-29.9c0.7,0,1.4,0,2,0c26.7,0,51.9,10.4,70.8,29.3c18.7,18.7,29.1,43.5,29.3,69.7
			c0.2,26.9-10.1,52.2-29,71.3c-18.8,18.9-43.7,29.5-70.2,29.7C180.6,201.5,180.3,201.5,180,201.5z M179.9,4.4c-0.7,0-1.3,0-2,0
			c-52.6,1-95.2,44.6-95,97c-0.2,25.7,9.9,50.1,28.2,68.5c18.6,18.7,43.4,28.9,69.7,28.7c25.7-0.2,49.9-10.4,68.1-28.8
			c18.4-18.5,28.4-43.1,28.2-69.2C276.7,47.5,233.1,4.4,179.9,4.4z"/>
		<path fill="#737373" d="M220.9,102.7l-1.1-10.2c-0.2-2-1.5-2.9-4-3.2l-7.4-0.5c-0.7-1.4-1.4-2.8-2.3-4.2l3.6-6.5
			c1.2-2.1,1-3.8-0.5-5.1l-8-6.5c-1.5-1.2-3.1-1-5.1,0.6l-5.6,4.9c-1.5-0.5-3-1-4.5-1.3l-2.1-7.1c-0.7-2.3-2-3.4-4-3.2l-10.2,1.1
			c-2,0.2-2.9,1.5-3.2,4l-0.5,7.4c-1.5,0.7-2.9,1.4-4.2,2.3l-6.5-3.5c-2.1-1.2-3.8-1-5.1,0.5l-6.5,8c-1.2,1.5-1.1,3.1,0.5,5.1
			l4.8,5.6c-0.6,1.5-1,3-1.3,4.6l-7.1,2.1c-2.3,0.7-3.4,2-3.2,4l1.1,10.2c0.2,2,1.5,2.9,4,3.2l7.4,0.5c0.7,1.5,1.4,2.9,2.3,4.2
			l-3.6,6.5c-1.2,2.1-1,3.8,0.6,5.1l8,6.5c1.5,1.2,3.1,1,5.1-0.6l5.6-4.9c1.5,0.6,3,1,4.6,1.3l2.1,7.1c0.6,2.3,2,3.4,4,3.2l10.2-1.1
			c2-0.2,2.9-1.5,3.2-4l0.5-7.4c1.5-0.7,2.9-1.4,4.2-2.3l6.5,3.6c2.1,1.2,3.8,1,5.1-0.6l6.5-8c1.2-1.5,1-3.1-0.6-5.1l-4.8-5.6
			c0.6-1.5,1-3,1.3-4.6l7.1-2.1C220.1,106,221.1,104.7,220.9,102.7z M185,110.4c-2.3,1.6-5,2.2-7.7,1.7c-5.4-0.9-9-5.9-8.3-11.3
			l0.1-0.5c0.5-2.7,2-5,4.2-6.6c2.2-1.6,5-2.1,7.7-1.7c5.4,0.9,9,5.9,8.3,11.3l-0.1,0.5C188.7,106.5,187.2,108.9,185,110.4z"/>
		<g>
			<path fill="#EFAA1E" d="M138.2,144.7l-42.4-39.9V98l42.4-39.5v9.9L102,101.5l36.2,33.1V144.7z"/>
		</g>
		<g>
			<path fill="#EFAA1E" d="M220.3,134.6l36.2-33.1l-36.2-33.1v-9.9L262.8,98v6.7l-42.4,39.9V134.6z"/>
		</g>
	</g>
</g>
<g id="Layer_3" display="none">
	<g display="inline">
		<path fill="#737373" d="M180,201.5c-26.8,0-52.1-10.5-71-29.6c-18.9-19-29.2-44-29-70.5c-0.1-26.3,10.1-51.2,28.7-70
			c18.5-18.8,43-29.4,69.2-29.9c0.7,0,1.4,0,2,0c26.7,0,51.9,10.4,70.8,29.3c18.7,18.7,29.1,43.5,29.3,69.7
			c0.2,26.9-10.1,52.2-29,71.3c-18.8,18.9-43.7,29.5-70.2,29.7C180.6,201.5,180.3,201.5,180,201.5z M179.9,4.4c-0.7,0-1.3,0-2,0
			c-52.6,1-95.2,44.6-95,97c-0.2,25.7,9.9,50.1,28.2,68.5c18.6,18.7,43.4,28.9,69.7,28.7c25.7-0.2,49.9-10.4,68.1-28.8
			c18.4-18.5,28.4-43.1,28.2-69.2C276.7,47.5,233.1,4.4,179.9,4.4z"/>
		<g>
			<rect x="144" y="162" fill="#EFAA1E" width="83" height="2"/>
			<g>
				<polygon fill="#EFAA1E" points="146,167.7 137.5,162.8 146,157.9 				"/>
			</g>
			<g>
				<polygon fill="#EFAA1E" points="226,167.7 234.5,162.8 226,157.9 				"/>
			</g>
		</g>
		<rect x="132" y="158" fill="#EFAA1E" width="2" height="10"/>
		<rect x="236" y="158" fill="#EFAA1E" width="2" height="10"/>
		<g>
			<rect x="123" y="59" fill="#EFAA1E" width="2" height="82"/>
			<g>
				<polygon fill="#EFAA1E" points="128.8,140 123.9,148.5 119,140 				"/>
			</g>
			<g>
				<polygon fill="#EFAA1E" points="128.8,60 123.9,51.5 119,60 				"/>
			</g>
		</g>
		<rect x="119" y="152" fill="#EFAA1E" width="10" height="3"/>
		<rect x="119" y="48" fill="#EFAA1E" width="10" height="2"/>
		<rect x="133" y="47" fill="#F3F2F2" width="50" height="50"/>
		<rect x="189" y="47" fill="#D2D2D2" width="49" height="50"/>
		<rect x="133" y="103" fill="#D2D2D2" width="50" height="50"/>
		<rect x="188" y="103" fill="#F3F2F2" width="50" height="50"/>
		<g>
			<path fill="#737373" d="M151,79.7l-11.5-4.9v-1.3l11.5-4.9v1.7l-9.4,3.9L151,78V79.7z"/>
			<path fill="#737373" d="M152.7,81.2l9.3-16.1h1.9l-9.3,16.1H152.7z"/>
			<path fill="#737373" d="M165.7,79.7V78l9.4-3.9l-9.4-3.9v-1.7l11.5,4.9v1.3L165.7,79.7z"/>
		</g>
		<g>
			<path fill="#737373" d="M212.1,73.7l-1.2-0.7l2.2-3.2l-3.9,0.3v-1.3l3.9,0.3l-2.2-3.2l1.2-0.7l1.7,3.5l1.7-3.5l1.2,0.7l-2.2,3.2
				l3.9-0.3v1.3l-3.9-0.3l2.2,3.2l-1.2,0.7l-1.7-3.5L212.1,73.7z"/>
		</g>
		<g>
			<path fill="#737373" d="M155.5,136v-1.7h3V122c-0.4,0.2-0.9,0.4-1.4,0.5c-0.6,0.1-1.1,0.2-1.5,0.2V121c0.6,0,1.2-0.1,1.7-0.3
				c0.5-0.2,1-0.4,1.3-0.8h1.8v14.4h2.7v1.7H155.5z"/>
		</g>
		<g>
			<path fill="#737373" d="M199.7,132.3l-6.7-2.9v-0.7l6.7-2.9v1l-5.5,2.3l5.5,2.3V132.3z"/>
			<path fill="#737373" d="M202.1,130.5l-0.3-6.8h1.4l-0.3,6.8H202.1z M201.8,133.1v-1.3h1.3v1.3H201.8z"/>
			<path fill="#737373" d="M205.3,129.6v-0.9h3v0.9H205.3z"/>
			<path fill="#737373" d="M209.8,129.6v-0.9h3v0.9H209.8z"/>
			<path fill="#737373" d="M217.3,129.6v-0.9h3v0.9H217.3z"/>
			<path fill="#737373" d="M221.8,129.6v-0.9h3v0.9H221.8z"/>
			<path fill="#737373" d="M226.3,132.3v-1l5.5-2.3l-5.5-2.3v-1l6.7,2.9v0.7L226.3,132.3z"/>
		</g>
	</g>
</g>
</svg>
